<?xml version="1.0" standalone="no"?>
<!DOCTYPE svg PUBLIC "-//W3C//DTD SVG 20010904//EN"
 "http://www.w3.org/TR/2001/REC-SVG-20010904/DTD/svg10.dtd">
<svg version="1.0" xmlns="http://www.w3.org/2000/svg"
 width="450.000000pt" height="450.000000pt" viewBox="0 0 450.000000 450.000000"
 preserveAspectRatio="xMidYMid meet">

<g transform="translate(0.000000,450.000000) scale(0.100000,-0.100000)"
fill="#000000" stroke="none">
<path d="M1664 4009 c-121 -35 -140 -203 -32 -269 18 -11 41 -20 50 -20 28 0
88 -144 154 -369 41 -139 42 -147 7 -156 -93 -23 -301 -145 -373 -220 -19 -19
-37 -35 -41 -35 -4 0 -32 30 -62 66 -50 60 -54 69 -50 104 11 79 -86 130 -150
80 -76 -60 -15 -183 81 -164 28 5 52 -8 126 -74 l38 -33 -35 -38 c-86 -95
-169 -244 -214 -382 -15 -46 -27 -85 -27 -86 -4 -9 -292 72 -388 109 -73 27
-79 32 -101 76 -17 36 -33 52 -70 71 -59 29 -104 23 -154 -23 -29 -27 -36 -41
-40 -82 -9 -92 47 -154 139 -154 39 0 54 6 83 32 l37 31 116 -17 c64 -9 175
-31 245 -49 126 -31 128 -32 123 -57 -16 -74 -17 -240 -2 -335 9 -55 18 -109
22 -121 5 -19 -4 -24 -103 -52 -150 -44 -249 -60 -271 -44 -57 41 -121 33
-147 -18 -23 -44 -19 -78 14 -111 51 -51 118 -37 150 32 13 28 28 38 91 62 56
22 263 87 277 87 1 0 7 -17 14 -37 34 -108 130 -269 213 -360 l50 -55 -99 -97
c-55 -54 -134 -124 -177 -158 -76 -60 -76 -61 -120 -51 -90 21 -182 -35 -208
-126 -23 -82 16 -168 92 -205 57 -27 103 -27 158 2 76 38 114 120 93 199 -9
34 -7 43 17 81 47 74 256 317 272 317 4 0 39 -24 77 -54 81 -62 217 -134 316
-167 39 -12 71 -23 73 -25 6 -3 -56 -238 -78 -297 -13 -34 -30 -62 -43 -68
-71 -37 -89 -102 -43 -156 34 -39 98 -39 132 0 30 35 31 85 3 121 -20 26 -21
32 -10 99 6 40 23 123 38 185 25 103 29 113 48 108 115 -29 303 -29 437 -1 35
7 66 10 69 7 10 -11 57 -188 74 -275 17 -89 19 -137 6 -137 -14 0 -41 -65 -41
-98 0 -43 39 -95 84 -110 70 -23 145 16 162 85 16 61 -29 138 -87 150 -22 4
-33 18 -57 72 -28 64 -65 170 -96 277 l-14 52 73 26 c95 35 209 101 295 170
38 31 73 56 78 56 11 0 107 -101 182 -192 48 -57 52 -64 46 -100 -9 -53 22
-121 63 -142 44 -23 112 -21 145 5 111 88 45 250 -96 237 -43 -5 -54 -1 -91
25 -51 37 -227 187 -227 194 0 3 20 28 43 56 97 115 176 258 212 382 9 30 21
55 26 55 22 0 300 -73 389 -102 141 -46 166 -61 189 -113 48 -109 198 -122
261 -21 18 30 22 47 18 92 -4 47 -10 61 -41 91 -30 31 -44 37 -91 41 -44 4
-62 0 -90 -18 -20 -12 -36 -26 -36 -31 0 -27 -229 7 -460 67 -74 19 -135 36
-136 37 -1 1 2 25 7 52 22 115 10 324 -26 467 -6 25 -4 28 44 42 29 8 89 23
135 32 84 16 84 16 114 -6 54 -40 133 -12 147 52 13 56 -35 118 -90 118 -31 0
-72 -29 -85 -60 -17 -42 -60 -62 -267 -125 -6 -2 -25 30 -43 74 -38 94 -127
235 -199 313 l-52 57 51 47 c27 25 73 64 101 84 44 34 54 37 82 29 44 -12 104
6 143 45 108 108 -8 291 -156 247 -71 -21 -120 -110 -100 -181 11 -39 3 -55
-96 -174 -54 -65 -56 -67 -77 -51 -140 102 -258 166 -372 201 -33 10 -61 19
-63 20 -6 3 60 240 88 312 27 70 34 79 66 91 65 24 94 109 57 172 -23 38 -75
63 -118 55 -98 -19 -133 -128 -64 -202 19 -21 19 -23 4 -127 -14 -93 -57 -283
-67 -292 -2 -2 -24 1 -48 7 -70 17 -303 13 -389 -5 -41 -9 -76 -16 -77 -14 -8
8 -86 301 -98 370 -22 122 -23 143 -4 164 51 56 58 145 16 198 -37 47 -108 71
-164 54z"/>
</g>
</svg>
